# xmcd CD database file
#
# Track frame offsets:
#	150
#	30288
#	58330
#	75168
#	97475
#	114954
#	134254
#	159728
#	184151
#	204128
#	231863
#	254640
#
# Disc length: 3655 seconds
#
# Revision: 0
# Processed by: cddbd v1.4PL0 Copyright (c) Steve Scherf et al.
# Submitted via: CDex 1.50beta10
#
DISCID=9d0e450c
DTITLE=David Maxwell and Friends - Max Attack
DYEAR=2003
DGENRE=Blues
TTITLE0=Backseat of a greyhound
TTITLE1=Thanks for all the women
TTITLE2=Twisted tendons
TTITLE3=Long distance driver
TTITLE4=What's the use (of a broken heart)
TTITLE5=Sticky buns
TTITLE6=Moving out of this world
TTITLE7=Coming home, Baby
TTITLE8=Hip-house rock
TTITLE9=Handyman
TTITLE10=Thank you Pinetop Perkins
TTITLE11=Max attack
EXTD=YEAR: 2003
EXTT0=
EXTT1=
EXTT2=
EXTT3=
EXTT4=
EXTT5=
EXTT6=
EXTT7=
EXTT8=
EXTT9=
EXTT10=
EXTT11=
PLAYORDER=
